<svg width="45" height="45" viewBox="0 0 45 45" fill="none" xmlns="http://www.w3.org/2000/svg">
<path d="M13.125 19.6875V11.25C13.125 10.7527 13.3225 10.2758 13.6742 9.92418C14.0258 9.57254 14.5027 9.375 15 9.375H17.8125C18.3098 9.375 18.7867 9.57254 19.1383 9.92418C19.49 10.2758 19.6875 10.7527 19.6875 11.25V20.625V5.625C19.6875 5.12772 19.885 4.65081 20.2367 4.29917C20.5883 3.94754 21.0652 3.75 21.5625 3.75H24.375C24.8723 3.75 25.3492 3.94754 25.7008 4.29917C26.0525 4.65081 26.25 5.12772 26.25 5.625V20.625V13.125C26.25 12.6277 26.4475 12.1508 26.7992 11.7992C27.1508 11.4475 27.6277 11.25 28.125 11.25H30.9375C31.4348 11.25 31.9117 11.4475 32.2633 11.7992C32.615 12.1508 32.8125 12.6277 32.8125 13.125V19.6875" stroke="#E9E8E8" stroke-width="4" stroke-linecap="round" stroke-linejoin="round"/>
<path d="M6.5625 16.875C6.5625 16.875 13.125 21.5625 22.5 21.5625C31.875 21.5625 38.4375 16.875 38.4375 16.875L33.9206 41.25H11.0794L6.5625 16.875Z" stroke="#E9E8E8" stroke-width="4" stroke-linecap="round" stroke-linejoin="round"/>
<path d="M22.5 33.75C25.6066 33.75 28.125 32.4908 28.125 30.9375C28.125 29.3842 25.6066 28.125 22.5 28.125C19.3934 28.125 16.875 29.3842 16.875 30.9375C16.875 32.4908 19.3934 33.75 22.5 33.75Z" stroke="#E9E8E8" stroke-width="4"/>
</svg>
