<svg width="45" height="45" viewBox="0 0 45 45" fill="none" xmlns="http://www.w3.org/2000/svg">
<path d="M9.375 15H35.625" stroke="#E9E8E8" stroke-width="4" stroke-linecap="round"/>
<path d="M13.2684 17.0091C13.25 16.7522 13.2847 16.4943 13.3704 16.2514C13.456 16.0085 13.5908 15.7859 13.7663 15.5974C13.9417 15.4089 14.1542 15.2586 14.3903 15.1558C14.6264 15.053 14.8812 15 15.1387 15H29.8612C30.1187 15 30.3734 15.053 30.6095 15.1557C30.8455 15.2585 31.0579 15.4087 31.2334 15.5971C31.4088 15.7855 31.5436 16.008 31.6293 16.2508C31.715 16.4935 31.7498 16.7513 31.7316 17.0081L30.1247 39.5081C30.091 39.9812 29.8793 40.4239 29.5323 40.7471C29.1852 41.0703 28.7286 41.25 28.2544 41.25H16.7456C16.2714 41.25 15.8148 41.0703 15.4677 40.7471C15.1207 40.4239 14.909 39.9812 14.8753 39.5081L13.2684 17.0091Z" stroke="#E9E8E8" stroke-width="4"/>
<path d="M22.5 9.375V5.625C22.5 5.12772 22.6975 4.65081 23.0492 4.29917C23.4008 3.94754 23.8777 3.75 24.375 3.75H27.1875" stroke="#E9E8E8" stroke-width="4" stroke-linecap="round"/>
<path d="M13.8019 10.9416C13.8749 10.5039 14.1007 10.1063 14.4392 9.8195C14.7777 9.53267 15.2069 9.37517 15.6506 9.375H29.3494C29.7932 9.37495 30.2227 9.53235 30.5614 9.8192C30.9001 10.1061 31.126 10.5038 31.1991 10.9416L31.875 15H13.125L13.8019 10.9416Z" stroke="#E9E8E8" stroke-width="4"/>
</svg>
