<svg width="45" height="45" viewBox="0 0 45 45" fill="none" xmlns="http://www.w3.org/2000/svg">
<path d="M8.4498 18.2812H36.5502C36.9712 18.2834 37.3873 18.191 37.7678 18.0109C38.1483 17.8307 38.4835 17.5675 38.7487 17.2405C39.0139 16.9136 39.2024 16.5313 39.3001 16.1218C39.3978 15.7123 39.4024 15.2861 39.3135 14.8746C38.0074 8.70117 30.9375 4.21875 22.5 4.21875C14.0625 4.21875 6.99258 8.70117 5.68652 14.8746C5.59758 15.2861 5.60216 15.7123 5.6999 16.1218C5.79764 16.5313 5.98607 16.9136 6.25128 17.2405C6.51648 17.5675 6.8517 17.8307 7.23222 18.0109C7.61273 18.191 8.02882 18.2834 8.4498 18.2812ZM22.5 7.03125C29.4996 7.03125 35.5447 10.6541 36.5502 15.4688H8.4498L8.4375 15.4564C9.45527 10.6541 15.5004 7.03125 22.5 7.03125ZM40.2996 26.8031L33.0697 29.4398L26.543 26.8189C26.2078 26.6849 25.834 26.6849 25.4988 26.8189L18.9949 29.4223L12.4805 26.8189C12.1598 26.6908 11.8031 26.6852 11.4785 26.8031L3.74414 29.6156C3.41725 29.7595 3.15736 30.0224 3.01721 30.3509C2.87707 30.6794 2.86717 31.0489 2.98953 31.3845C3.11189 31.72 3.35734 31.9964 3.67606 32.1576C3.99478 32.3188 4.36289 32.3527 4.70566 32.2523L7.03125 31.4104V32.3438C7.03125 34.2086 7.77204 35.997 9.09066 37.3156C10.4093 38.6342 12.1977 39.375 14.0625 39.375H30.9375C32.8023 39.375 34.5907 38.6342 35.9093 37.3156C37.228 35.997 37.9688 34.2086 37.9688 32.3438V30.6439L41.2611 29.4469C41.4458 29.3928 41.6173 29.3015 41.7652 29.1785C41.9131 29.0555 42.0342 28.9035 42.1211 28.7319C42.2079 28.5602 42.2585 28.3725 42.2699 28.1805C42.2813 27.9885 42.2532 27.7962 42.1873 27.6155C42.1214 27.4347 42.0191 27.2695 41.8868 27.1298C41.7545 26.9902 41.5949 26.8793 41.418 26.8038C41.241 26.7283 41.0505 26.6899 40.8581 26.691C40.6658 26.6921 40.4757 26.7327 40.2996 26.8102V26.8031ZM35.1562 32.3438C35.1562 33.4626 34.7118 34.5357 33.9206 35.3269C33.1294 36.118 32.0564 36.5625 30.9375 36.5625H14.0625C12.9436 36.5625 11.8706 36.118 11.0794 35.3269C10.2882 34.5357 9.84375 33.4626 9.84375 32.3438V30.3891L11.9303 29.6297L18.457 32.2436C18.7922 32.3776 19.166 32.3776 19.5012 32.2436L26.0051 29.6402L32.509 32.2436C32.8297 32.3717 33.1863 32.3773 33.5109 32.2594L35.1404 31.667L35.1562 32.3438ZM2.8125 22.5C2.8125 22.127 2.96066 21.7694 3.22438 21.5056C3.4881 21.2419 3.84579 21.0938 4.21875 21.0938H40.7812C41.1542 21.0938 41.5119 21.2419 41.7756 21.5056C42.0393 21.7694 42.1875 22.127 42.1875 22.5C42.1875 22.873 42.0393 23.2306 41.7756 23.4944C41.5119 23.7581 41.1542 23.9062 40.7812 23.9062H4.21875C3.84579 23.9062 3.4881 23.7581 3.22438 23.4944C2.96066 23.2306 2.8125 22.873 2.8125 22.5Z" fill="#FFA012"/>
</svg>
